<?xml version="1.0" encoding="utf-8"?>
<svg viewBox="192.297 233.185 97.222 97.222" xmlns="http://www.w3.org/2000/svg">
  <g transform="matrix(1.080247, 0, 0, 1.080247, 186.895889, 228.756378)" fill="#111111">
    <path d="M50,4.1c-24.9,0-45,20.1-45,45s20.1,45,45,45c24.9,0,45-20.1,45-45S74.9,4.1,50,4.1z M50,83.2     c-18.8,0-34.1-15.3-34.1-34.1S31.2,15,50,15c18.8,0,34.1,15.3,34.1,34.1S68.8,83.2,50,83.2z"/>
    <path d="M65.5,33.6c-8.6-8.6-22.4-8.6-31,0c-8.6,8.6-8.6,22.4,0,31c8.6,8.6,22.4,8.6,31,0C74.1,56,74.1,42.2,65.5,33.6z      M49.6,36.2C49.5,36.2,49.5,36.2,49.6,36.2c-0.2,0.1-0.4,0.1-0.6,0.1v0c0,0-0.1,0-0.1,0c-5.7,0-10.4,3.7-12.2,8.7l0,0     c-0.2,0.3-0.4,0.6-0.8,0.8c0,0,0,0,0,0c-0.2,0.1-0.4,0.1-0.6,0.1c-0.9,0-1.6-0.7-1.6-1.6c0-0.2,0.1-0.4,0.2-0.6     c2.2-6.1,8-10.5,14.8-10.6c0.1,0,0.2,0,0.3,0c0.9,0,1.6,0.7,1.6,1.6C50.5,35.4,50.1,35.9,49.6,36.2z"/>
  </g>
</svg>