<?xml version="1.0" encoding="utf-8"?>
<svg viewBox="144.75 43.111 252.778 34.713" xmlns="http://www.w3.org/2000/svg">
  <path d="M 153.704 49.112 C 155.391 46.16 159.771 43.435 164.605 43.435 L 164.605 51.772 C 157.532 51.772 154.158 53.849 154.158 60.921 L 154.158 77.174 L 144.75 77.174 L 144.75 43.825 L 153.704 43.825 L 153.704 49.113 L 153.704 49.112 Z M 206.252 60.014 L 206.155 62.252 L 181.434 62.252 C 181.823 67.8 185.521 70.46 189.966 70.46 C 193.307 70.46 195.903 68.903 197.168 65.951 L 205.732 67.216 C 203.526 73.964 197.525 77.824 190.031 77.824 C 179.26 77.824 172.22 71.466 172.22 60.5 C 172.22 49.534 179.454 43.111 189.738 43.111 C 199.179 43.111 206.219 48.334 206.251 60.013 L 206.252 60.014 Z M 189.804 49.73 C 185.555 49.73 182.602 51.709 181.694 56.154 L 197.007 56.154 C 196.52 51.904 193.633 49.73 189.805 49.73 L 189.804 49.73 Z M 229.894 77.824 C 222.4 77.824 216.592 74.872 215.392 68.546 L 223.21 66.34 C 224.216 69.908 226.747 71.303 229.893 71.303 C 232.197 71.303 234.695 70.59 234.63 67.962 C 234.597 64.491 229.342 64.199 224.054 62.317 C 220.064 60.922 216.236 58.781 216.236 53.169 C 216.236 46.323 221.913 43.177 229.31 43.177 C 235.798 43.177 241.216 45.642 242.513 52.001 L 235.279 53.623 C 234.273 50.508 232.067 49.405 229.342 49.405 C 226.876 49.405 224.768 50.281 224.768 52.357 C 224.768 54.985 228.628 55.504 232.813 56.64 C 237.972 58.035 243.616 60.273 243.616 67.41 C 243.616 75.067 237.096 77.824 229.894 77.824 L 229.894 77.824 Z M 277.218 43.825 L 286.561 43.825 L 286.561 77.175 L 277.705 77.175 L 277.477 73.152 C 275.142 76.105 271.443 77.824 266.869 77.824 C 258.856 77.824 254.444 73.639 254.444 66.275 L 254.444 43.825 L 263.819 43.825 L 263.819 64.263 C 263.819 68.675 266.577 70.297 269.821 70.297 C 273.682 70.297 277.185 68.351 277.218 62.219 L 277.218 43.825 L 277.218 43.825 Z M 340.535 43.176 C 347.673 43.176 352.279 46.809 352.279 53.655 L 352.279 77.175 L 342.936 77.175 L 342.936 56.314 C 342.936 52.388 340.471 50.669 337.681 50.669 C 334.339 50.669 331.387 52.583 331.387 58.358 L 331.387 77.174 L 321.946 77.174 L 321.946 56.411 C 321.946 52.421 319.546 50.669 316.593 50.669 C 313.349 50.669 310.332 52.583 310.332 58.844 L 310.332 77.174 L 301.021 77.174 L 301.021 43.824 L 310.332 43.824 L 310.332 47.749 C 312.538 44.797 315.912 43.175 320 43.175 C 324.834 43.175 328.467 44.927 330.219 48.171 C 332.555 44.829 336.123 43.175 340.535 43.175 L 340.535 43.176 Z M 397.528 60.014 L 397.431 62.252 L 372.71 62.252 C 373.099 67.8 376.797 70.46 381.242 70.46 C 384.583 70.46 387.179 68.903 388.444 65.951 L 397.009 67.216 C 394.803 73.964 388.801 77.824 381.307 77.824 C 370.536 77.824 363.496 71.466 363.496 60.5 C 363.496 49.534 370.73 43.111 381.015 43.111 C 390.455 43.111 397.495 48.334 397.527 60.013 L 397.528 60.014 Z M 381.081 49.73 C 376.831 49.73 373.879 51.709 372.97 56.154 L 388.283 56.154 C 387.796 51.904 384.909 49.73 381.081 49.73 L 381.081 49.73 Z" fill="#111111"/>
</svg>